<svg class="hero-modern-web-architecture-at-scale-illustration" fill="none" height="657" viewBox="0 0 1320 657" width="1320"
     xmlns="http://www.w3.org/2000/svg">
    <path d="M1032.5 394h219v219h-219z" fill="#fff" opacity=".1"></path>
    <path d="M1320 613.5l-1094.1-2.1M1320 38.2H380.9M1251.7 393.6H896.9M1032.2 477.1H896.9M1032.2 445.3h-51.8M1252.1 0v656.1M897.4 38.4v574.3M1032.6 393.1v219.6M980.9 393.1v83.5M1001.7 444.9v31.7M324 0v656.1" stroke="#4C5257"
          stroke-width=".9"></path>
    <path
            d="M985.1 453.4A19 19 0 001008 472a29.9 29.9 0 0025.6-29.2 49.5 49.5 0 00-49-49.4 79.8 79.8 0 00-80 75 130 130 0 0049 106.7c2.4 1.6 4.6 3.5 7 5l3.6 2.5 3.7 2.3c19.9 11.9 42.6 18.3 65.8 18.4 11.7 0 23.3-1 34.9-2.7a217 217 0 0033.9-8.6l4.1-1.4 2-.7 2.1-.9 8.1-3.2 8-3.7 1-.5.9-.5 2-1 3.8-2a218.5 218.5 0 0055-42.5 214.3 214.3 0 0055.7-124.6l.6-8.7.1-1v-16.4l-.4-8.8a344.9 344.9 0 00-177-285.1A338.8 338.8 0 00936 50L918.7 49l-17.4-.3-8.8.1-4.4.1-4.4.2c-5.8.3-11.7.5-17.6 1a556 556 0 00-69.8 9l-8.7 1.7-8.6 2a232 232 0 00-8.5 2l-8.6 2-8.5 2.3-4.2 1.2-2.1.6-2.1.6c-5.7 1.7-11.3 3.3-16.9 5.2A599.6 599.6 0 00695 88.4l-8.2 3.3-4 1.7-4 1.8-8.1 3.5-8 3.6a577 577 0 00-288 298.5c-1.3 2.7-2.4 5.5-3.5 8.2-1.1 2.8-2.3 5.5-3.3 8.3l-3.1 8.3-1.6 4.2-1.4 4.2a576.2 576.2 0 00-26.2 103.8l-1.4 8.8-.6 4.4-.6 4.5-1 8.9-1 9c-.6 5.9-1 11.9-1.4 17.8l-.6 9-.4 9a1.3 1.3 0 01-2.6 0c-.4-12-.6-24.1-.2-36.2l.3-9 .5-9.1.3-4.5.3-4.6.8-9a554 554 0 0132.4-141.7l3.2-8.5c.6-1.4 1-2.9 1.7-4.3l1.7-4.2 3.5-8.4 3.7-8.4 1.9-4.2 2-4.1 3.9-8.3 4-8.2 2.1-4 2.2-4.1 4.3-8.1c1.4-2.7 3-5.3 4.5-8a571.3 571.3 0 0151.6-75.8c3.9-4.7 7.7-9.4 11.7-14l6-7 6.2-6.8 3.1-3.4 3.2-3.3 6.4-6.7 6.5-6.5 3.2-3.2 3.4-3.2 6.7-6.4 6.8-6.1 3.4-3.1 3.5-3 7-6 7-6 3.6-2.8 3.6-2.9 7.3-5.6c2.4-2 4.9-3.7 7.3-5.6 5-3.7 10-7.1 15-10.7l7.6-5.2 7.7-5a565.9 565.9 0 0164.4-35.8l8.4-4 8.4-3.7 4.2-1.8 4.3-1.8 8.5-3.5c11.5-4.4 23-8.7 34.8-12.4 5.8-2 11.7-3.7 17.6-5.4l2.2-.7 2.3-.5 4.4-1.3 9-2.3c6-1.4 11.9-3 18-4.2l9-1.9 9-1.7c24.2-4.4 48.6-7.2 73.2-8.5 6.1-.4 12.3-.5 18.4-.7h18.4l18.6.6c6.2.6 12.4 1 18.6 1.7a364.2 364.2 0 01324.2 349.4l.1 9.2.1 4.7v2.3l-.1 2.3-.2 4.7v3.5l-.1 1.2-.8 9.3a236.2 236.2 0 01-7 36.7 222 222 0 01-82.6 121c-10 7.4-20.5 14-31.5 19.7l-4.1 2.1-2.1 1-1 .6-1.1.5-8.5 3.7-8.6 3.4-2.2.8-2.2.7-4.4 1.5a230 230 0 01-73 10.8c-25.2-.6-49.8-8-71.2-21.2l-3.9-2.5-3.8-2.7c-2.6-1.8-5-3.8-7.5-5.7a139.6 139.6 0 01-50.7-115.2 87 87 0 0188.3-80.2 54 54 0 0146.4 28.2 53.8 53.8 0 016.7 27 33.6 33.6 0 01-12.2 25 33.3 33.3 0 01-22 7.5 21.9 21.9 0 01-21-22 1.3 1.3 0 012.1-1c.3.3.4.6.4 1z"
            fill="url(#paint0_radial)"></path>
    <path d="M0 0h667.8v656.1H0z" fill="url(#paint1_linear)"></path>
    <defs>
        <radialGradient id="paint0_radial" cx="0" cy="0" gradientTransform="matrix(-671.31155 -197.45042 217.59313 -739.79473 1033.5 453.8)" gradientUnits="userSpaceOnUse"
                        r="1">
            <stop offset=".2" stop-color="#84F3DF">
                <animate attributeName="stop-color" dur="15s" repeatCount="indefinite"
                         values="#84F3DF; #FFDD73; #FF9987; #6165D5; #84F3DF;"></animate>
            </stop>
            <stop offset=".3" stop-color="#FFDD73">
                <animate attributeName="stop-color" dur="15s" repeatCount="indefinite"
                         values="#FFDD73; #FF9987; #6165D5; #84F3DF; #FFDD73;"></animate>
            </stop>
            <stop offset=".5" stop-color="#FF9987">
                <animate attributeName="stop-color" dur="15s" repeatCount="indefinite"
                         values="#FF9987; #6165D5; #84F3DF; #FFDD73; #FF9987;"></animate>
            </stop>
            <stop offset=".7" stop-color="#6165D5">
                <animate attributeName="stop-color" dur="15s" repeatCount="indefinite"
                         values="#6165D5; #84F3DF; #FFDD73; #FF9987; #6165D5;"></animate>
            </stop>
        </radialGradient>
        <linearGradient id="paint1_linear" gradientUnits="userSpaceOnUse" x1="0" x2="667.8" y1="328" y2="328">
            <stop offset=".6" stop-color="#151A1E"></stop>
            <stop offset="1" stop-color="#151A1E" stop-opacity="0"></stop>
        </linearGradient>
    </defs>
</svg>